<svg width="1000" height="1414" viewBox="0 0 1000 1414" fill="none" xmlns="http://www.w3.org/2000/svg">
  <defs>
    <linearGradient id="bg" x1="0" y1="0" x2="1000" y2="1414"><stop stop-color="#050510"/><stop offset=".5" stop-color="#080615"/><stop offset="1" stop-color="#030812"/></linearGradient>
    <linearGradient id="frame" x1="50" y1="40" x2="950" y2="1360"><stop stop-color="#ff305f"/><stop offset=".25" stop-color="#ff2bd6"/><stop offset=".5" stop-color="#ffe600"/><stop offset=".75" stop-color="#00f5ff"/><stop offset="1" stop-color="#7cff00"/></linearGradient>
    <linearGradient id="title" x1="120" y1="190" x2="880" y2="330"><stop stop-color="#ff164f"/><stop offset=".4" stop-color="#ff2bd6"/><stop offset=".7" stop-color="#8b5cff"/><stop offset="1" stop-color="#208cff"/></linearGradient>
    <radialGradient id="screenGlow" cx="50%" cy="50%" r="60%"><stop stop-color="#00f5ff" stop-opacity=".22"/><stop offset=".55" stop-color="#ff2bd6" stop-opacity=".08"/><stop offset="1" stop-color="#000" stop-opacity="0"/></radialGradient>
    <filter id="glow" x="-30%" y="-30%" width="160%" height="160%"><feGaussianBlur stdDeviation="8" result="b"/><feMerge><feMergeNode in="b"/><feMergeNode in="SourceGraphic"/></feMerge></filter>
    <clipPath id="tv"><path d="M130 420H870L925 475V850L870 905H205L75 775V475L130 420Z"/></clipPath>
    <clipPath id="eggClip"><ellipse cx="500" cy="660" rx="245" ry="285"/></clipPath>
    <style>
      .small{font-family:Arial,Helvetica,sans-serif;font-weight:900;letter-spacing:4px;fill:#dffbff}
      .side{font-family:Arial,Helvetica,sans-serif;font-size:18px;letter-spacing:5px;fill:#dffbff}
      .button{font-family:Arial,Helvetica,sans-serif;font-size:26px;font-weight:900;letter-spacing:3px;fill:#f4fbff}
      .ring{transform-origin:center;transform-box:fill-box;animation:pulse 3s ease-in-out infinite}.scan{animation:scan 4.4s ease-in-out infinite}@keyframes pulse{0%,100%{opacity:.32;transform:scale(.96)}50%{opacity:.95;transform:scale(1.06)}}@keyframes scan{0%{transform:translateY(-280px);opacity:0}25%{opacity:.45}100%{transform:translateY(300px);opacity:0}}
    </style>
  </defs>
  <rect width="1000" height="1414" rx="30" fill="url(#bg)"/>
  <rect x="14" y="14" width="972" height="1386" rx="30" stroke="url(#frame)" stroke-width="8"/>
  <rect x="42" y="42" width="916" height="1330" rx="24" stroke="rgba(255,255,255,.18)" stroke-width="2"/>
  <text x="95" y="120" class="small" font-size="28" fill="#ff305f">2026</text><text x="905" y="120" class="small" font-size="28" text-anchor="end" fill="#208cff">2026</text>
  <path d="M285 36H715C752 36 782 66 782 103C782 140 752 170 715 170H285C248 170 218 140 218 103C218 66 248 36 285 36Z" fill="#080a12" stroke="#eaff38" stroke-opacity=".35" stroke-width="3"/>
  <text x="500" y="96" text-anchor="middle" style="font-family:Arial,Helvetica,sans-serif;font-weight:900;letter-spacing:7px;fill:#eaff38;font-size:58px">TERENCE OS</text>
  <text x="500" y="132" text-anchor="middle" class="small" font-size="22">OPERATING SYSTEMS</text>
  <text x="500" y="310" text-anchor="middle" style="font-family:Impact,Arial Black,Arial,sans-serif;font-size:112px;font-weight:900;letter-spacing:2px;fill:url(#title)" filter="url(#glow)">DRAGON EGG</text>
  <text x="500" y="380" text-anchor="middle" style="font-family:Arial,Helvetica,sans-serif;font-weight:900;letter-spacing:12px;fill:#eaff38;font-size:38px">CHARACTER</text>
  <text transform="translate(78 540) rotate(90)" class="side">README // VIRTUAL // EMULATOR</text><text transform="translate(933 540) rotate(90)" class="side">CLICK // EGG // LOAD // ALEH</text>
  <path d="M130 420H870L925 475V850L870 905H205L75 775V475L130 420Z" fill="rgba(255,255,255,.025)" stroke="url(#frame)" stroke-width="5"/>
  <g clip-path="url(#tv)">
    <rect x="75" y="420" width="850" height="485" fill="#071018"/>
    <rect x="75" y="420" width="850" height="485" fill="url(#screenGlow)"/>
    <ellipse cx="500" cy="690" rx="300" ry="105" fill="#00f5ff" opacity=".08" filter="url(#glow)"/>
    <ellipse class="ring" cx="500" cy="665" rx="255" ry="255" fill="none" stroke="#00f5ff" stroke-width="3" opacity=".52"/>
    <ellipse class="ring" cx="500" cy="665" rx="205" ry="205" fill="none" stroke="#ff2bd6" stroke-width="3" opacity=".45"/>
    <g clip-path="url(#eggClip)">
      <g>
        <animateTransform attributeName="transform" attributeType="XML" type="rotate" from="0 500 680" to="360 500 680" dur="3.8s" repeatCount="indefinite"/>
        <image href="https://raw.githubusercontent.com/AOL83/AOL83/main/assets/readme-real-dragon-egg.jpg?v=spin-20260505" x="195" y="405" width="610" height="600" preserveAspectRatio="xMidYMid meet"/>
      </g>
    </g>
    <rect class="scan" x="140" y="470" width="720" height="44" fill="#00f5ff" opacity=".18"/>
    <rect x="170" y="705" width="660" height="90" rx="18" fill="rgba(0,0,0,.66)" stroke="#00f5ff" stroke-opacity=".46" stroke-width="2"/>
    <text x="500" y="748" text-anchor="middle" class="button" filter="url(#glow)">CLICK THE EGG</text>
    <text x="500" y="778" text-anchor="middle" class="small" font-size="14" fill="#9feaff">LOAD AURORA LOGISTICAL ECO HOLDINGS GATE</text>
  </g>
  <text x="500" y="955" text-anchor="middle" style="font-family:Arial,Helvetica,sans-serif;font-size:54px;font-weight:950;letter-spacing:4px;fill:#fff" filter="url(#glow)">COMING SOON TO</text>
  <text x="500" y="1020" text-anchor="middle" style="font-family:Arial,Helvetica,sans-serif;font-size:54px;font-weight:950;letter-spacing:4px;fill:#fff" filter="url(#glow)">BLOCKCHAIN</text>
  <path d="M120 1164H810L846 1200V1236L810 1272H120L84 1236V1200L120 1164Z" fill="#090A11" stroke="#FF2BD6" stroke-width="4"/>
  <text x="155" y="1224" class="button">ALEH GATE</text><rect x="650" y="1185" width="160" height="66" rx="10" fill="#0D0E13" stroke="#FF2BD6" stroke-width="3"/><text x="730" y="1227" text-anchor="middle" class="button">OPEN</text>
  <rect x="130" y="1330" width="740" height="38" rx="12" fill="#05070D" stroke="url(#frame)" stroke-width="2"/><text x="500" y="1355" text-anchor="middle" style="font-family:Arial,Helvetica,sans-serif;font-size:16px;font-weight:800;letter-spacing:4px;fill:#00f5ff">SEE THE EGG. CLICK THE EGG. LOAD THE GATE.</text>
</svg>